<svg xmlns="http://www.w3.org/2000/svg" viewBox="0 0 64 64">
  <defs>
    <linearGradient id="bg" x1="0" y1="0" x2="1" y2="1">
      <stop offset="0%" stop-color="#a7c35a" />
      <stop offset="100%" stop-color="#3f6a21" />
    </linearGradient>
  </defs>
  <rect x="4" y="4" width="56" height="56" rx="16" fill="url(#bg)" />
  <path
    d="M24 16c0 7-10 11-10 22 0 10 7 18 18 18s18-8 18-18c0-11-10-15-10-22h-4c0 5 6 9 6 16 0 6-4 12-10 12s-10-6-10-12c0-7 6-11 6-16h-4Z"
    fill="#fbfaf6"
  />
  <circle cx="41" cy="23" r="4" fill="#fbfaf6" opacity="0.9" />
</svg>
